# xmcd
#
# Track frame offsets:
#	150
#	14769
#	48953
#	84708
#	99376
#	124425
#
# Disc length: 2055 seconds
#
# Revision: 1
# Processed by: cddbd v1.5.2PL0 Copyright (c) Steve Scherf et al.
# Submitted via: audiograbber 1.83.01
#
DISCID=4c080506
DTITLE=Blank and Jones - Sound Of Machines
DYEAR=2006
DGENRE=Dance
TTITLE0=RhythmusRaum Remix Edit
TTITLE1=Technopunk Remix
TTITLE2=Jay Frog Remix
TTITLE3=RhythmusRaum Dub Remix Edit
TTITLE4=Classic Original Retouched Edit
TTITLE5=Daten-CD
EXTD=
EXTT0=
EXTT1=
EXTT2=
EXTT3=
EXTT4=
EXTT5=
PLAYORDER=
